<?xml version="1.0" encoding="utf-8"?>
<!-- Generator: Adobe Illustrator 15.0.2, SVG Export Plug-In . SVG Version: 6.00 Build 0)  -->
<!DOCTYPE svg PUBLIC "-//W3C//DTD SVG 1.1//EN" "http://www.w3.org/Graphics/SVG/1.1/DTD/svg11.dtd">
<svg version="1.1" id="Layer_1" xmlns="http://www.w3.org/2000/svg" xmlns:xlink="http://www.w3.org/1999/xlink" x="0px" y="0px"
	 width="200px" height="2208.878px" viewBox="0 0 200 2208.878" enable-background="new 0 0 200 2208.878" xml:space="preserve">
<g>
	<g>
		<path fill="#29AAE2" d="M100,1459.996c-55.138,0-100-44.861-100-100s44.862-100,100-100c55.143,0,100,44.861,100,100
			S155.143,1459.996,100,1459.996z M100,1268.32c-50.549,0-91.675,41.125-91.675,91.676s41.126,91.676,91.675,91.676
			c50.553,0,91.676-41.125,91.676-91.676S150.553,1268.32,100,1268.32z"/>
	</g>
	<g>
		<g>
			<g>
				<path fill="#29AAE2" d="M132.641,1330.216c-0.529,0-1.064-0.203-1.473-0.607c-0.813-0.814-0.813-2.131,0-2.943l7.064-7.055
					c0.813-0.814,2.129-0.814,2.942,0c0.813,0.813,0.813,2.129,0,2.941l-7.063,7.057
					C133.705,1330.013,133.176,1330.216,132.641,1330.216L132.641,1330.216z"/>
			</g>
		</g>
		<g>
			<g>
				<path fill="#29AAE2" d="M111.26,1358.761c-1.066,0-2.131-0.404-2.943-1.219l-5.072-5.076c-1.626-1.625-1.626-4.26,0-5.885
					c1.626-1.627,4.261-1.627,5.886,0l5.073,5.076c1.626,1.625,1.626,4.262,0,5.885
					C113.389,1358.355,112.324,1358.761,111.26,1358.761L111.26,1358.761z"/>
			</g>
		</g>
		<g>
			<g>
				<path fill="#29AAE2" d="M139.703,1370.552c-0.536,0-1.066-0.203-1.471-0.609l-7.064-7.063c-0.813-0.813-0.813-2.131,0-2.943
					s2.131-0.813,2.943,0l7.063,7.063c0.813,0.813,0.813,2.131,0,2.943C140.77,1370.349,140.232,1370.552,139.703,1370.552
					L139.703,1370.552z"/>
			</g>
		</g>
		<g>
			<g>
				<path fill="#29AAE2" d="M99.374,1330.216c-0.536,0-1.064-0.203-1.472-0.607l-7.063-7.057c-0.813-0.813-0.813-2.131,0-2.941
					c0.812-0.814,2.129-0.814,2.942,0l7.063,7.055c0.813,0.813,0.813,2.129,0,2.943
					C100.438,1330.013,99.902,1330.216,99.374,1330.216L99.374,1330.216z"/>
			</g>
		</g>
		<g>
			<g>
				<path fill="#29AAE2" d="M149.516,1346.857h-9.981c-1.154,0-2.08-0.932-2.08-2.082c0-1.148,0.926-2.082,2.08-2.082h9.981
					c1.146,0,2.082,0.934,2.082,2.082C151.598,1345.925,150.662,1346.857,149.516,1346.857L149.516,1346.857z"/>
			</g>
		</g>
		<g>
			<g>
				<path fill="#29AAE2" d="M92.479,1346.857h-9.981c-1.156,0-2.082-0.932-2.082-2.082c0-1.148,0.926-2.082,2.082-2.082h9.981
					c1.146,0,2.081,0.934,2.081,2.082C94.561,1345.925,93.626,1346.857,92.479,1346.857L92.479,1346.857z"/>
			</g>
		</g>
		<g>
			<g>
				<path fill="#29AAE2" d="M116.006,1380.367c-1.154,0-2.08-0.934-2.08-2.082v-9.98c0-1.148,0.926-2.082,2.08-2.082
					c1.146,0,2.082,0.934,2.082,2.082v9.98C118.088,1379.435,117.152,1380.367,116.006,1380.367L116.006,1380.367z"/>
			</g>
		</g>
		<g>
			<g>
				<path fill="#29AAE2" d="M116.006,1323.328c-1.154,0-2.08-0.932-2.08-2.082v-9.979c0-1.15,0.926-2.084,2.08-2.084
					c1.146,0,2.082,0.934,2.082,2.084v9.979C118.088,1322.396,117.152,1323.328,116.006,1323.328L116.006,1323.328z"/>
			</g>
		</g>
		<g>
			<path fill="#29AAE2" d="M57.589,1412.763c-2.667,0-5.105-0.961-6.854-2.711c-2.178-2.18-3.114-5.377-2.552-8.775
				c0.479-2.945,2.023-5.854,4.356-8.184l55.58-55.578c5.023-5.037,12.887-5.891,16.959-1.809c1.748,1.748,2.716,4.188,2.716,6.863
				c0,3.547-1.649,7.229-4.528,10.096l-55.574,55.578C64.824,1411.115,61.141,1412.763,57.589,1412.763L57.589,1412.763z
				 M118.227,1341.318c-1.033,0-2.683,0.545-4.22,2.082l-55.581,55.582c-1.089,1.09-1.828,2.418-2.032,3.637
				c-0.114,0.701-0.024,1.295,0.228,1.545c0.236,0.238,0.708,0.273,0.968,0.273c1.032,0,2.683-0.545,4.216-2.078l55.584-55.584
				c1.536-1.531,2.08-3.18,2.08-4.211c0-0.262-0.039-0.73-0.275-0.973C118.948,1341.353,118.486,1341.318,118.227,1341.318
				L118.227,1341.318z"/>
		</g>
	</g>
</g>
<g>
	<g>
		<path fill="#AB1F25" d="M100,1669.996c-55.143,0-100-44.859-100-100s44.857-100,100-100c55.143,0,100,44.859,100,100
			S155.143,1669.996,100,1669.996z M100,1478.32c-50.55,0-91.677,41.125-91.677,91.676c0,50.553,41.127,91.678,91.677,91.678
			c50.549,0,91.677-41.125,91.677-91.678C191.677,1519.445,150.549,1478.32,100,1478.32z"/>
	</g>
	<g>
		<g>
			<path fill="#AB1F25" d="M95.675,1617.187c-1.082,0-2.146-0.422-2.943-1.221c-1.195-1.197-1.543-2.998-0.894-4.557
				c3.089-7.318,2.26-15.777-2.098-22.49c-1.212-0.135-2.356-0.309-3.463-0.529c-1.65-0.326-2.943-1.613-3.276-3.264
				c-0.22-1.09-0.391-2.238-0.529-3.477c-6.641-4.309-15.319-5.135-22.493-2.119c-1.561,0.652-3.364,0.305-4.561-0.893
				c-1.195-1.195-1.545-2.998-0.895-4.559c1.609-3.816,3.886-7.219,6.78-10.111c6.748-6.744,16.137-10.105,25.762-9.141
				c2.756-5.979,6.512-11.359,11.187-16.031c10.243-10.242,23.887-16.117,37.438-16.117c3.016,0,5.998,0.293,8.885,0.867
				c1.643,0.33,2.936,1.619,3.26,3.268c3.195,15.977-2.648,33.729-15.25,46.324c-4.675,4.676-10.049,8.428-16.023,11.182
				c0.95,9.541-2.342,18.969-9.146,25.762c-2.869,2.881-6.274,5.166-10.12,6.781C96.764,1617.082,96.22,1617.187,95.675,1617.187
				L95.675,1617.187z M90.736,1580.654c0.516,0.055,1.04,0.102,1.589,0.141c1.203,0.086,2.301,0.68,3.024,1.639
				c4.707,6.209,6.976,13.791,6.624,21.303c5.303-5.594,7.506-13.441,5.912-21.135c-0.414-1.988,0.666-3.984,2.563-4.721
				c6.133-2.4,11.599-5.975,16.25-10.629c9.908-9.904,14.9-23.455,13.421-35.986c-12.566-1.482-26.146,3.586-35.979,13.42
				c-4.651,4.648-8.228,10.115-10.635,16.254c-0.739,1.893-2.73,2.963-4.715,2.559c-7.608-1.557-15.575,0.652-21.128,5.902
				c7.544-0.35,15.219,2.029,21.291,6.637c0.959,0.721,1.553,1.82,1.643,3.016C90.635,1579.611,90.683,1580.142,90.736,1580.654
				L90.736,1580.654z"/>
		</g>
		<g>
			<path fill="#AB1F25" d="M121.997,1559.787c-2.771,0-5.392-1.08-7.354-3.043c-4.06-4.061-4.06-10.662-0.01-14.723
				c3.95-3.938,10.797-3.928,14.725,0c1.967,1.965,3.047,4.578,3.047,7.359c0,2.779-1.08,5.395-3.047,7.359
				C127.396,1558.705,124.777,1559.787,121.997,1559.787L121.997,1559.787z M121.997,1543.134c-1.666,0-3.233,0.65-4.422,1.832
				c-2.431,2.434-2.423,6.396,0.008,8.834c2.358,2.352,6.474,2.354,8.829-0.004c1.179-1.178,1.83-2.746,1.83-4.414
				c0-1.67-0.651-3.238-1.83-4.416C125.234,1543.785,123.665,1543.134,121.997,1543.134L121.997,1543.134z"/>
		</g>
		<g>
			<path fill="#AB1F25" d="M74.677,1602.896c-1.383,0-2.765-0.109-4.138-0.338c-0.878-0.146-1.562-0.834-1.707-1.711
				c-1.432-8.559,1.673-17.627,8.299-24.264c0.813-0.813,2.13-0.813,2.943,0c0.813,0.811,0.813,2.129,0,2.941
				c-5.288,5.291-7.968,12.338-7.332,19.123c6.803,0.633,13.819-2.059,19.111-7.348c0.813-0.811,2.132-0.814,2.943,0.002
				c0.813,0.813,0.813,2.133,0,2.943C89.221,1599.812,81.937,1602.896,74.677,1602.896L74.677,1602.896z"/>
		</g>
	</g>
</g>
<g>
	<g>
		<path fill="#009247" d="M100.001,829.997C44.858,829.997,0,785.138,0,729.998s44.858-99.999,100.001-99.999
			c55.138,0,99.999,44.859,99.999,99.999S155.139,829.997,100.001,829.997z M100.001,638.322c-50.553,0-91.676,41.124-91.676,91.676
			s41.123,91.676,91.676,91.676c50.548,0,91.675-41.124,91.675-91.676S150.549,638.322,100.001,638.322z"/>
	</g>
	<g>
		<path fill="#009247" d="M100.514,778.695c-0.009,0,0,0-0.009,0c-2.391,0-4.634-0.934-6.329-2.624l-39.797-39.807
			c-1.691-1.685-2.635-3.935-2.635-6.329c0.008-2.395,0.943-4.644,2.635-6.334l12.502-12.506c1.073-1.08,2.65-1.48,4.123-1.047
			c1.462,0.433,2.568,1.631,2.894,3.125c0.381,1.809,1.259,3.438,2.527,4.707c3.553,3.561,9.748,3.558,13.309,0
			c3.666-3.67,3.666-9.641-0.009-13.314c-1.269-1.27-2.894-2.143-4.699-2.526c-1.495-0.318-2.69-1.428-3.121-2.891
			c-0.431-1.464-0.032-3.045,1.049-4.123l11.223-11.229c3.386-3.381,9.28-3.381,12.658,0l8.149,8.148
			c0.861-1.885,2.048-3.619,3.545-5.111c3.349-3.351,7.803-5.196,12.543-5.196c4.73,0,9.187,1.847,12.544,5.194
			c6.909,6.915,6.909,18.162,0,25.077c-1.505,1.5-3.236,2.692-5.114,3.551l8.139,8.149c1.69,1.683,2.625,3.932,2.625,6.326
			c0,2.394-0.935,4.645-2.634,6.336l-11.218,11.224c-1.082,1.085-2.667,1.481-4.131,1.048c-1.473-0.438-2.576-1.643-2.885-3.138
			c-0.375-1.788-1.254-3.412-2.537-4.695c-3.545-3.55-9.748-3.551-13.305,0.003c-3.662,3.667-3.662,9.635,0,13.307
			c1.279,1.271,2.906,2.15,4.703,2.527c1.486,0.318,2.689,1.426,3.129,2.889c0.432,1.465,0.033,3.05-1.049,4.129l-12.506,12.507
			C105.146,777.763,102.902,778.695,100.514,778.695L100.514,778.695z M68.475,721.28l-8.211,8.214
			c-0.162,0.155-0.195,0.327-0.195,0.441c0,0.115,0.033,0.287,0.188,0.438l39.81,39.812c0.301,0.294,0.57,0.313,0.878,0.003
			l8.219-8.217c-0.887-0.604-1.715-1.295-2.487-2.061c-6.918-6.922-6.918-18.172,0-25.084c3.351-3.35,7.804-5.194,12.535-5.194
			c4.739,0,9.194,1.846,12.544,5.194c0.766,0.77,1.455,1.601,2.064,2.488l6.935-6.936c0.155-0.157,0.187-0.329,0.187-0.443
			c0-0.115-0.03-0.287-0.178-0.438l-13.707-13.716c-1.236-1.233-1.568-3.104-0.836-4.688c0.723-1.577,2.315-2.55,4.104-2.405
			c2.771,0.208,5.476-0.744,7.406-2.668c3.668-3.666,3.668-9.634,0-13.304c-3.562-3.557-9.756-3.552-13.315,0
			c-1.911,1.914-2.886,4.607-2.667,7.396c0.141,1.737-0.82,3.378-2.406,4.106c-1.594,0.727-3.453,0.396-4.682-0.837l-13.707-13.704
			c-0.301-0.299-0.585-0.299-0.886,0l-6.938,6.937c0.891,0.607,1.72,1.299,2.491,2.064c6.909,6.924,6.909,18.174,0,25.083
			c-3.354,3.353-7.804,5.196-12.548,5.199c-4.734,0-9.189-1.848-12.539-5.201C69.767,722.999,69.076,722.167,68.475,721.28
			L68.475,721.28z"/>
	</g>
</g>
<g>
	<g>
		<g>
			<path fill="#0D71BA" d="M13.889,2064.373c-0.103,0-0.205-0.031-0.292-0.096c-0.225-0.162-0.273-0.477-0.111-0.697l3.262-4.484
				l-3.262-4.484c-0.162-0.223-0.113-0.535,0.111-0.697c0.222-0.162,0.535-0.111,0.697,0.111l3.475,4.777
				c0.127,0.176,0.127,0.412,0,0.588l-3.475,4.775C14.196,2064.3,14.044,2064.373,13.889,2064.373L13.889,2064.373z"/>
		</g>
		<g>
			<path fill="#0D71BA" d="M17.364,2059.595H6.784c-0.275,0-0.499-0.225-0.499-0.5s0.224-0.5,0.499-0.5h10.58
				c0.276,0,0.5,0.225,0.5,0.5S17.641,2059.595,17.364,2059.595L17.364,2059.595z"/>
		</g>
	</g>
	<g>
		<path fill="#0D71BA" d="M12,2071.208c-6.616,0-12-5.383-12-12s5.384-12,12-12s12,5.383,12,12S18.616,2071.208,12,2071.208z
			 M12,2048.208c-6.065,0-11.001,4.936-11.001,11S5.935,2070.21,12,2070.21s11.001-4.938,11.001-11.002S18.065,2048.208,12,2048.208
			z"/>
	</g>
</g>
<g>
	<g>
		<g>
			<path fill="#0E7DC1" d="M47.889,2064.373c-0.103,0-0.205-0.031-0.292-0.096c-0.225-0.162-0.273-0.477-0.111-0.697l3.262-4.484
				l-3.262-4.484c-0.162-0.223-0.113-0.535,0.111-0.697c0.222-0.162,0.535-0.111,0.697,0.111l3.475,4.777
				c0.127,0.176,0.127,0.412,0,0.588l-3.475,4.775C48.196,2064.3,48.044,2064.373,47.889,2064.373L47.889,2064.373z"/>
		</g>
		<g>
			<path fill="#0E7DC1" d="M51.364,2059.595h-10.58c-0.275,0-0.499-0.225-0.499-0.5s0.224-0.5,0.499-0.5h10.58
				c0.276,0,0.5,0.225,0.5,0.5S51.641,2059.595,51.364,2059.595L51.364,2059.595z"/>
		</g>
	</g>
	<g>
		<path fill="#0E7DC1" d="M46,2071.208c-6.616,0-12-5.383-12-12s5.384-12,12-12s12,5.383,12,12S52.616,2071.208,46,2071.208z
			 M46,2048.208c-6.065,0-11.001,4.936-11.001,11S39.935,2070.21,46,2070.21s11.001-4.938,11.001-11.002
			S52.065,2048.208,46,2048.208z"/>
	</g>
</g>
<g>
	<g>
		<g>
			<path fill="#39759C" d="M81.889,2064.373c-0.103,0-0.205-0.031-0.292-0.096c-0.225-0.162-0.273-0.477-0.111-0.697l3.262-4.484
				l-3.262-4.484c-0.162-0.223-0.113-0.535,0.111-0.697c0.222-0.162,0.535-0.111,0.697,0.111l3.475,4.777
				c0.127,0.176,0.127,0.412,0,0.588l-3.475,4.775C82.196,2064.3,82.044,2064.373,81.889,2064.373L81.889,2064.373z"/>
		</g>
		<g>
			<path fill="#39759C" d="M85.364,2059.595h-10.58c-0.275,0-0.499-0.225-0.499-0.5s0.224-0.5,0.499-0.5h10.58
				c0.276,0,0.5,0.225,0.5,0.5S85.641,2059.595,85.364,2059.595L85.364,2059.595z"/>
		</g>
	</g>
	<g>
		<path fill="#39759C" d="M80,2071.208c-6.616,0-12-5.383-12-12s5.384-12,12-12s12,5.383,12,12S86.616,2071.208,80,2071.208z
			 M80,2048.208c-6.065,0-11.001,4.936-11.001,11S73.935,2070.21,80,2070.21s11.001-4.938,11.001-11.002
			S86.065,2048.208,80,2048.208z"/>
	</g>
</g>
<g>
	<g>
		<g>
			<path fill="#282828" d="M115.889,2064.373c-0.103,0-0.205-0.031-0.291-0.096c-0.226-0.162-0.273-0.477-0.111-0.697l3.262-4.484
				l-3.262-4.484c-0.162-0.223-0.113-0.535,0.111-0.697c0.221-0.162,0.534-0.111,0.696,0.111l3.476,4.777
				c0.127,0.176,0.127,0.412,0,0.588l-3.476,4.775C116.195,2064.3,116.044,2064.373,115.889,2064.373L115.889,2064.373z"/>
		</g>
		<g>
			<path fill="#282828" d="M119.363,2059.595h-10.579c-0.275,0-0.499-0.225-0.499-0.5s0.224-0.5,0.499-0.5h10.579
				c0.277,0,0.5,0.225,0.5,0.5S119.641,2059.595,119.363,2059.595L119.363,2059.595z"/>
		</g>
	</g>
	<g>
		<path fill="#282828" d="M114,2071.208c-6.616,0-12-5.383-12-12s5.384-12,12-12s12,5.383,12,12S120.616,2071.208,114,2071.208z
			 M114,2048.208c-6.064,0-11.001,4.936-11.001,11s4.937,11.002,11.001,11.002s11.001-4.938,11.001-11.002
			S120.064,2048.208,114,2048.208z"/>
	</g>
</g>
<g>
	<g>
		<g>
			<path fill="#F16624" d="M149.889,2064.373c-0.103,0-0.205-0.031-0.291-0.096c-0.226-0.162-0.273-0.477-0.111-0.697l3.262-4.484
				l-3.262-4.484c-0.162-0.223-0.113-0.535,0.111-0.697c0.221-0.162,0.534-0.111,0.696,0.111l3.476,4.777
				c0.127,0.176,0.127,0.412,0,0.588l-3.476,4.775C150.195,2064.3,150.044,2064.373,149.889,2064.373L149.889,2064.373z"/>
		</g>
		<g>
			<path fill="#F16624" d="M153.363,2059.595h-10.579c-0.275,0-0.499-0.225-0.499-0.5s0.224-0.5,0.499-0.5h10.579
				c0.277,0,0.5,0.225,0.5,0.5S153.641,2059.595,153.363,2059.595L153.363,2059.595z"/>
		</g>
	</g>
	<g>
		<path fill="#F16624" d="M148,2071.208c-6.616,0-12-5.383-12-12s5.384-12,12-12s12,5.383,12,12S154.616,2071.208,148,2071.208z
			 M148,2048.208c-6.064,0-11.001,4.936-11.001,11s4.937,11.002,11.001,11.002s11.001-4.938,11.001-11.002
			S154.064,2048.208,148,2048.208z"/>
	</g>
</g>
<g>
	<g>
		<g>
			<g>
				<path fill="#BDE1F7" d="M13.889,2098.373c-0.103,0-0.205-0.031-0.292-0.096c-0.225-0.162-0.273-0.477-0.111-0.697l3.262-4.484
					l-3.262-4.484c-0.162-0.223-0.113-0.535,0.111-0.697c0.222-0.162,0.535-0.111,0.697,0.111l3.475,4.777
					c0.127,0.176,0.127,0.412,0,0.588l-3.475,4.775C14.196,2098.3,14.044,2098.373,13.889,2098.373L13.889,2098.373z"/>
			</g>
			<g>
				<path fill="#BDE1F7" d="M17.364,2093.595H6.784c-0.275,0-0.499-0.225-0.499-0.5s0.224-0.5,0.499-0.5h10.58
					c0.276,0,0.5,0.225,0.5,0.5S17.641,2093.595,17.364,2093.595L17.364,2093.595z"/>
			</g>
		</g>
		<g>
			<path fill="#BDE1F7" d="M12,2105.208c-6.616,0-12-5.383-12-12s5.384-12,12-12s12,5.383,12,12S18.616,2105.208,12,2105.208z
				 M12,2082.208c-6.065,0-11.001,4.936-11.001,11S5.935,2104.21,12,2104.21s11.001-4.938,11.001-11.002
				S18.065,2082.208,12,2082.208z"/>
		</g>
	</g>
</g>
<g>
	<g>
		<g>
			<g>
				<path fill="#9ADBF4" d="M47.889,2098.373c-0.103,0-0.205-0.031-0.292-0.096c-0.225-0.162-0.273-0.477-0.111-0.697l3.262-4.484
					l-3.262-4.484c-0.162-0.223-0.113-0.535,0.111-0.697c0.222-0.162,0.535-0.111,0.697,0.111l3.475,4.777
					c0.127,0.176,0.127,0.412,0,0.588l-3.475,4.775C48.196,2098.3,48.044,2098.373,47.889,2098.373L47.889,2098.373z"/>
			</g>
			<g>
				<path fill="#9ADBF4" d="M51.364,2093.595h-10.58c-0.275,0-0.499-0.225-0.499-0.5s0.224-0.5,0.499-0.5h10.58
					c0.276,0,0.5,0.225,0.5,0.5S51.641,2093.595,51.364,2093.595L51.364,2093.595z"/>
			</g>
		</g>
		<g>
			<path fill="#9ADBF4" d="M46,2105.208c-6.616,0-12-5.383-12-12s5.384-12,12-12s12,5.383,12,12S52.616,2105.208,46,2105.208z
				 M46,2082.208c-6.065,0-11.001,4.936-11.001,11S39.935,2104.21,46,2104.21s11.001-4.938,11.001-11.002
				S52.065,2082.208,46,2082.208z"/>
		</g>
	</g>
</g>
<g>
	<g>
		<g>
			<g>
				<path fill="#BFDAED" d="M81.889,2098.373c-0.103,0-0.205-0.031-0.292-0.096c-0.225-0.162-0.273-0.477-0.111-0.697l3.262-4.484
					l-3.262-4.484c-0.162-0.223-0.113-0.535,0.111-0.697c0.222-0.162,0.535-0.111,0.697,0.111l3.475,4.777
					c0.127,0.176,0.127,0.412,0,0.588l-3.475,4.775C82.196,2098.3,82.044,2098.373,81.889,2098.373L81.889,2098.373z"/>
			</g>
			<g>
				<path fill="#BFDAED" d="M85.364,2093.595h-10.58c-0.275,0-0.499-0.225-0.499-0.5s0.224-0.5,0.499-0.5h10.58
					c0.276,0,0.5,0.225,0.5,0.5S85.641,2093.595,85.364,2093.595L85.364,2093.595z"/>
			</g>
		</g>
		<g>
			<path fill="#BFDAED" d="M80,2105.208c-6.616,0-12-5.383-12-12s5.384-12,12-12s12,5.383,12,12S86.616,2105.208,80,2105.208z
				 M80,2082.208c-6.065,0-11.001,4.936-11.001,11S73.935,2104.21,80,2104.21s11.001-4.938,11.001-11.002
				S86.065,2082.208,80,2082.208z"/>
		</g>
	</g>
</g>
<g>
	<g>
		<g>
			<g>
				<path fill="#FFFFFF" d="M115.889,2098.373c-0.103,0-0.205-0.031-0.291-0.096c-0.226-0.162-0.273-0.477-0.111-0.697l3.262-4.484
					l-3.262-4.484c-0.162-0.223-0.113-0.535,0.111-0.697c0.221-0.162,0.534-0.111,0.696,0.111l3.476,4.777
					c0.127,0.176,0.127,0.412,0,0.588l-3.476,4.775C116.195,2098.3,116.044,2098.373,115.889,2098.373L115.889,2098.373z"/>
			</g>
			<g>
				<path fill="#FFFFFF" d="M119.363,2093.595h-10.579c-0.275,0-0.499-0.225-0.499-0.5s0.224-0.5,0.499-0.5h10.579
					c0.277,0,0.5,0.225,0.5,0.5S119.641,2093.595,119.363,2093.595L119.363,2093.595z"/>
			</g>
		</g>
		<g>
			<path fill="#FFFFFF" d="M114,2105.208c-6.616,0-12-5.383-12-12s5.384-12,12-12s12,5.383,12,12S120.616,2105.208,114,2105.208z
				 M114,2082.208c-6.064,0-11.001,4.936-11.001,11s4.937,11.002,11.001,11.002s11.001-4.938,11.001-11.002
				S120.064,2082.208,114,2082.208z"/>
		</g>
	</g>
</g>
<g>
	<g>
		<g>
			<g>
				<path fill="#3D3D33" d="M80.542,1802.49c-1.064,0-2.13-0.408-2.943-1.221c-1.626-1.627-1.626-4.26,0-5.887l36.338-36.338
					c1.625-1.625,4.258-1.625,5.886,0c1.625,1.627,1.625,4.26,0,5.885l-36.339,36.34C82.671,1802.082,81.605,1802.49,80.542,1802.49
					L80.542,1802.49z"/>
			</g>
		</g>
		<g>
			<g>
				<path fill="#3D3D33" d="M116.42,1785.996c-0.67,0-1.35-0.029-2.027-0.09c-2.289-0.209-3.979-2.23-3.771-4.521
					c0.207-2.293,2.268-3.959,4.52-3.771c4.137,0.383,8.168-1.072,11.067-3.977l10.337-10.34c5.462-5.463,5.462-14.35,0.007-19.811
					l-1.172-1.172c-5.461-5.455-14.339-5.455-19.794,0l-10.348,10.35c-2.902,2.9-4.354,6.934-3.984,11.063
					c0.209,2.293-1.483,4.311-3.772,4.521c-2.268,0.203-4.313-1.479-4.519-3.771c-0.594-6.594,1.736-13.047,6.39-17.697
					l10.349-10.35c8.69-8.697,22.853-8.697,31.567,0l1.168,1.172c8.705,8.715,8.699,22.885-0.006,31.582l-10.339,10.35
					C127.915,1783.699,122.294,1785.996,116.42,1785.996L116.42,1785.996z"/>
			</g>
		</g>
		<g>
			<g>
				<path fill="#3D3D33" d="M73.111,1829.248c-5.719,0-11.434-2.176-15.791-6.521l-1.182-1.189
					c-4.203-4.203-6.524-9.805-6.524-15.771c0-5.957,2.321-11.568,6.54-15.779l10.337-10.348c4.645-4.65,11.063-6.967,17.698-6.391
					c2.287,0.205,3.979,2.227,3.775,4.512c-0.208,2.293-2.179,3.975-4.516,3.781c-4.102-0.371-8.166,1.082-11.068,3.979
					l-10.335,10.354c-2.65,2.643-4.106,6.158-4.106,9.893c0,3.74,1.456,7.254,4.1,9.896l1.18,1.191
					c5.452,5.438,14.329,5.439,19.787-0.016l10.356-10.355c2.895-2.895,4.342-6.928,3.968-11.057
					c-0.208-2.293,1.484-4.313,3.773-4.521c2.263-0.186,4.312,1.48,4.519,3.773c0.593,6.598-1.728,13.047-6.374,17.688
					l-10.357,10.357C84.545,1827.072,78.826,1829.248,73.111,1829.248L73.111,1829.248z"/>
			</g>
		</g>
	</g>
	<g>
		<path fill="#3D3D33" d="M100,1879.998c-55.14,0-100-44.859-100-99.998c0-55.141,44.86-100.004,100-100.004
			c55.139,0,100,44.861,100,100.004C199.999,1835.138,155.139,1879.998,100,1879.998z M100,1688.32
			c-50.55,0-91.674,41.127-91.674,91.68c0,50.551,41.124,91.674,91.674,91.674s91.673-41.123,91.673-91.674
			C191.672,1729.447,150.55,1688.32,100,1688.32z"/>
	</g>
</g>
<g>
	<g>
		<g>
			<g>
				<path fill="#3D3D33" d="M146.443,998.177h-22.195c-2.301,0-4.163-1.858-4.163-4.16v-66.702c0-2.302,1.862-4.162,4.163-4.162
					h22.195c2.303,0,4.164,1.86,4.164,4.162v66.702C150.607,996.317,148.746,998.177,146.443,998.177L146.443,998.177z
					 M128.409,989.854h13.874v-58.375h-13.874V989.854L128.409,989.854z"/>
			</g>
		</g>
		<g>
			<g>
				<path fill="#3D3D33" d="M110.025,998.177H87.828c-2.3,0-4.162-1.858-4.162-4.16v-38.159c0-2.302,1.862-4.162,4.162-4.162h22.197
					c2.301,0,4.162,1.86,4.162,4.162v38.159C114.188,996.317,112.326,998.177,110.025,998.177L110.025,998.177z M91.99,989.854
					h13.873V960.02H91.99V989.854L91.99,989.854z"/>
			</g>
		</g>
		<g>
			<g>
				<path fill="#3D3D33" d="M73.606,998.177H51.408c-2.3,0-4.161-1.858-4.161-4.16v-17.45c0-2.297,1.861-4.162,4.161-4.162h22.198
					c2.301,0,4.162,1.865,4.162,4.162v17.45C77.768,996.317,75.907,998.177,73.606,998.177L73.606,998.177z M55.571,989.854h13.873
					v-9.125H55.571V989.854L55.571,989.854z"/>
			</g>
		</g>
		<g>
			<g>
				<path fill="#3D3D33" d="M118.256,922.424c-1.064,0-2.129-0.407-2.941-1.214c-1.625-1.627-1.625-4.262,0-5.888l13.158-13.171
					l-13.158-13.176c-1.625-1.626-1.625-4.26,0-5.886c1.627-1.617,4.261-1.626,5.886,0.01l16.096,16.111
					c1.626,1.62,1.626,4.256,0,5.877L121.2,921.201C120.387,922.017,119.32,922.424,118.256,922.424L118.256,922.424z"/>
			</g>
		</g>
		<g>
			<g>
				<path fill="#3D3D33" d="M63.5,960.466c-0.26,0-0.528-0.023-0.792-0.073c-2.261-0.439-3.736-2.624-3.297-4.877
					c6.447-33.337,35.559-57.527,69.219-57.527c2.302,0,4.162,1.864,4.162,4.164c0,2.297-1.86,4.159-4.162,4.159
					c-29.681,0-55.353,21.359-61.047,50.781C67.2,959.084,65.456,960.466,63.5,960.466L63.5,960.466z"/>
			</g>
		</g>
	</g>
	<g>
		<path fill="#3D3D33" d="M100,1039.997c-55.139,0-100-44.86-100-100c0-55.144,44.861-100,100-100c55.141,0,100,44.856,100,100
			C199.999,995.137,155.139,1039.997,100,1039.997z M100,848.323c-50.55,0-91.674,41.125-91.674,91.674
			c0,50.548,41.124,91.674,91.674,91.674s91.675-41.126,91.675-91.674C191.675,889.448,150.55,848.323,100,848.323z"/>
	</g>
</g>
<g>
	<g>
		<g>
			<path fill="#3D3D33" d="M106.038,1184.63c-22.884,0-41.504-18.609-41.504-41.486c0.008-22.881,18.625-41.494,41.495-41.494
				c22.873,0.004,41.486,18.623,41.494,41.507C147.516,1166.023,128.902,1184.63,106.038,1184.63L106.038,1184.63z
				 M106.029,1109.974c-18.282,0-33.164,14.881-33.172,33.172c0,18.285,14.885,33.16,33.18,33.16
				c18.279,0,33.152-14.873,33.16-33.148C139.189,1124.863,124.313,1109.978,106.029,1109.974L106.029,1109.974z"/>
		</g>
		<g>
			<path fill="#3D3D33" d="M129.365,1143.134h4.162c-0.004-15.164-12.34-27.498-27.498-27.498v4.162
				C118.895,1119.798,129.361,1130.267,129.365,1143.134L129.365,1143.134z"/>
		</g>
		<g>
			<path fill="#3D3D33" d="M56.59,1198.349c1.065,0,2.13-0.406,2.943-1.221l23.177-23.172c1.626-1.625,1.626-4.26,0-5.887
				c-1.626-1.625-4.26-1.625-5.886,0l-23.178,23.174c-1.626,1.623-1.626,4.26,0,5.885
				C54.461,1197.941,55.526,1198.349,56.59,1198.349L56.59,1198.349z"/>
		</g>
	</g>
	<g>
		<path fill="#3D3D33" d="M0,1149.998c0-55.142,44.86-100,100-100c55.141,0,100,44.858,100,100c0,55.141-44.859,99.998-100,99.998
			C44.86,1249.996,0,1205.138,0,1149.998z M8.325,1149.998c0,50.549,41.125,91.674,91.675,91.674
			c50.549,0,91.675-41.125,91.675-91.674c0-50.551-41.126-91.676-91.675-91.676C49.45,1058.321,8.325,1099.446,8.325,1149.998z"/>
	</g>
</g>
<g>
	<g>
		<path fill="#FFFFFF" d="M42.014,2201.222c0,2.139-0.832,4.148-2.343,5.658c-3.122,3.123-8.2,3.123-11.32,0.002
			c-1.512-1.512-2.344-3.521-2.344-5.66c0-2.137,0.833-4.146,2.346-5.66c3.119-3.119,8.197-3.119,11.317,0
			C41.182,2197.074,42.014,2199.083,42.014,2201.222L42.014,2201.222z M27.366,2201.222c0,1.775,0.691,3.443,1.945,4.699
			c2.59,2.59,6.807,2.59,9.398-0.002c1.254-1.254,1.945-2.924,1.945-4.697s-0.691-3.443-1.946-4.699c-2.591-2.59-6.806-2.59-9.396,0
			C28.058,2197.779,27.366,2199.447,27.366,2201.222L27.366,2201.222z"/>
	</g>
	<g>
		<path fill="#FFFFFF" d="M36.335,2201.222c0,0.18-0.07,0.354-0.199,0.48l-3.29,3.289c-0.265,0.266-0.696,0.266-0.961,0
			c-0.266-0.266-0.266-0.695,0-0.961l2.81-2.809l-2.81-2.811c-0.266-0.266-0.266-0.695,0-0.961c0.265-0.266,0.696-0.266,0.961,0
			l3.29,3.291C36.265,2200.869,36.335,2201.041,36.335,2201.222L36.335,2201.222z"/>
	</g>
</g>
<g>
	<g>
		<path fill="#FFFFFF" d="M26.007,2175.222c0-2.137,0.832-4.146,2.343-5.658c3.122-3.121,8.2-3.121,11.32,0
			c1.512,1.512,2.344,3.521,2.344,5.658c0,2.139-0.833,4.148-2.346,5.66c-3.119,3.121-8.197,3.121-11.317,0
			C26.839,2179.371,26.007,2177.361,26.007,2175.222L26.007,2175.222z M40.654,2175.222c0-1.773-0.691-3.443-1.945-4.697
			c-2.59-2.592-6.807-2.59-9.398,0c-1.254,1.256-1.945,2.926-1.945,4.697c0,1.775,0.691,3.443,1.946,4.699
			c2.591,2.59,6.806,2.59,9.396,0C39.963,2178.666,40.654,2176.998,40.654,2175.222L40.654,2175.222z"/>
	</g>
	<g>
		<path fill="#FFFFFF" d="M31.686,2175.222c0-0.18,0.07-0.352,0.199-0.479l3.29-3.289c0.265-0.268,0.696-0.268,0.961,0
			c0.266,0.266,0.266,0.693,0,0.961l-2.81,2.809l2.81,2.811c0.266,0.264,0.266,0.693,0,0.961c-0.265,0.266-0.696,0.266-0.961,0
			l-3.29-3.291C31.756,2175.576,31.686,2175.404,31.686,2175.222L31.686,2175.222z"/>
	</g>
</g>
<g>
	<g>
		<path fill="#FFFFFF" d="M34,2157.222c-2.138,0-4.147-0.832-5.658-2.342c-3.122-3.123-3.122-8.201-0.001-11.32
			c1.511-1.512,3.521-2.344,5.659-2.344c2.138-0.002,4.148,0.832,5.66,2.344c3.12,3.119,3.12,8.197,0,11.318
			C38.148,2156.39,36.139,2157.222,34,2157.222L34,2157.222z M34,2142.576c-1.775,0-3.443,0.689-4.698,1.943
			c-2.591,2.592-2.59,6.809,0.001,9.398c1.255,1.254,2.924,1.945,4.697,1.945c1.775,0,3.443-0.691,4.699-1.947
			c2.59-2.59,2.59-6.805,0-9.396C37.443,2143.265,35.775,2142.574,34,2142.576L34,2142.576z"/>
	</g>
	<g>
		<path fill="#FFFFFF" d="M34,2151.544c-0.18,0-0.353-0.07-0.48-0.199l-3.289-3.291c-0.266-0.264-0.266-0.695,0-0.961
			s0.695-0.266,0.961,0l2.809,2.811l2.81-2.811c0.265-0.266,0.695-0.266,0.961,0c0.266,0.264,0.266,0.695,0,0.961l-3.29,3.291
			C34.354,2151.474,34.182,2151.544,34,2151.544L34,2151.544z"/>
	</g>
</g>
<g>
	<g>
		<path fill="#FFFFFF" d="M34,2115.208c2.138,0,4.147,0.832,5.658,2.344c3.122,3.121,3.122,8.199,0.001,11.32
			c-1.511,1.512-3.521,2.344-5.659,2.344s-4.148-0.834-5.66-2.346c-3.12-3.119-3.12-8.197,0-11.318
			C29.852,2116.041,31.861,2115.208,34,2115.208L34,2115.208z M34,2129.855c1.775,0,3.443-0.689,4.698-1.943
			c2.591-2.592,2.59-6.809-0.001-9.398c-1.255-1.254-2.924-1.945-4.697-1.945c-1.775,0-3.443,0.691-4.699,1.945
			c-2.59,2.592-2.59,6.807,0,9.396C30.557,2129.166,32.225,2129.855,34,2129.855L34,2129.855z"/>
	</g>
	<g>
		<path fill="#FFFFFF" d="M34,2120.888c0.18,0,0.353,0.07,0.48,0.199l3.289,3.289c0.266,0.266,0.266,0.697,0,0.961
			c-0.266,0.266-0.695,0.266-0.961,0l-2.809-2.811l-2.81,2.811c-0.265,0.266-0.695,0.266-0.961,0c-0.266-0.264-0.266-0.695,0-0.961
			l3.29-3.289C33.646,2120.958,33.818,2120.888,34,2120.888L34,2120.888z"/>
	</g>
</g>
<g>
	<g>
		<path fill="#282828" d="M16.007,2201.222c0,2.139-0.832,4.148-2.343,5.658c-3.122,3.123-8.2,3.123-11.32,0.002
			c-1.512-1.512-2.344-3.521-2.344-5.66c0-2.137,0.833-4.146,2.346-5.66c3.119-3.119,8.197-3.119,11.317,0
			C15.175,2197.074,16.007,2199.083,16.007,2201.222L16.007,2201.222z M1.359,2201.222c0,1.775,0.691,3.443,1.945,4.699
			c2.59,2.59,6.807,2.59,9.398-0.002c1.254-1.254,1.945-2.924,1.945-4.697s-0.691-3.443-1.946-4.699c-2.591-2.59-6.806-2.59-9.396,0
			C2.051,2197.779,1.359,2199.447,1.359,2201.222L1.359,2201.222z"/>
	</g>
	<g>
		<path fill="#282828" d="M10.328,2201.222c0,0.18-0.07,0.354-0.199,0.48l-3.29,3.289c-0.265,0.266-0.696,0.266-0.961,0
			c-0.266-0.266-0.266-0.695,0-0.961l2.81-2.809l-2.81-2.811c-0.266-0.266-0.266-0.695,0-0.961c0.265-0.266,0.696-0.266,0.961,0
			l3.29,3.291C10.258,2200.869,10.328,2201.041,10.328,2201.222L10.328,2201.222z"/>
	</g>
</g>
<g>
	<g>
		<path fill="#282828" d="M0,2175.222c0-2.137,0.832-4.146,2.343-5.658c3.122-3.121,8.2-3.121,11.32,0
			c1.512,1.512,2.344,3.521,2.344,5.658c0,2.139-0.833,4.148-2.346,5.66c-3.119,3.121-8.197,3.121-11.317,0
			C0.832,2179.371,0,2177.361,0,2175.222L0,2175.222z M14.647,2175.222c0-1.773-0.691-3.443-1.945-4.697
			c-2.59-2.592-6.807-2.59-9.398,0c-1.254,1.256-1.945,2.926-1.945,4.697c0,1.775,0.691,3.443,1.946,4.699
			c2.591,2.59,6.806,2.59,9.396,0C13.956,2178.666,14.647,2176.998,14.647,2175.222L14.647,2175.222z"/>
	</g>
	<g>
		<path fill="#282828" d="M5.679,2175.222c0-0.18,0.07-0.352,0.199-0.479l3.29-3.289c0.265-0.268,0.696-0.268,0.961,0
			c0.266,0.266,0.266,0.693,0,0.961l-2.81,2.809l2.81,2.811c0.266,0.264,0.266,0.693,0,0.961c-0.265,0.266-0.696,0.266-0.961,0
			l-3.29-3.291C5.749,2175.576,5.679,2175.404,5.679,2175.222L5.679,2175.222z"/>
	</g>
</g>
<g>
	<g>
		<path fill="#282828" d="M8,2157.222c-2.138,0-4.147-0.832-5.658-2.342c-3.122-3.123-3.122-8.201-0.001-11.32
			c1.511-1.512,3.521-2.344,5.659-2.344c2.138-0.002,4.148,0.832,5.66,2.344c3.12,3.119,3.12,8.197,0,11.318
			C12.148,2156.39,10.139,2157.222,8,2157.222L8,2157.222z M8,2142.576c-1.775,0-3.443,0.689-4.698,1.943
			c-2.591,2.592-2.59,6.809,0.001,9.398c1.255,1.254,2.924,1.945,4.697,1.945c1.775,0,3.443-0.691,4.699-1.947
			c2.59-2.59,2.59-6.805,0-9.396C11.443,2143.265,9.775,2142.574,8,2142.576L8,2142.576z"/>
	</g>
	<g>
		<path fill="#282828" d="M8,2151.544c-0.18,0-0.353-0.07-0.48-0.199l-3.289-3.291c-0.266-0.264-0.266-0.695,0-0.961
			s0.695-0.266,0.961,0l2.809,2.811l2.81-2.811c0.265-0.266,0.695-0.266,0.961,0c0.266,0.264,0.266,0.695,0,0.961l-3.29,3.291
			C8.354,2151.474,8.182,2151.544,8,2151.544L8,2151.544z"/>
	</g>
</g>
<g>
	<g>
		<path fill="#282828" d="M8,2115.208c2.138,0,4.147,0.832,5.658,2.344c3.122,3.121,3.122,8.199,0.001,11.32
			c-1.511,1.512-3.521,2.344-5.659,2.344s-4.148-0.834-5.66-2.346c-3.12-3.119-3.12-8.197,0-11.318
			C3.852,2116.041,5.861,2115.208,8,2115.208L8,2115.208z M8,2129.855c1.775,0,3.443-0.689,4.698-1.943
			c2.591-2.592,2.59-6.809-0.001-9.398c-1.255-1.254-2.924-1.945-4.697-1.945c-1.775,0-3.443,0.691-4.699,1.945
			c-2.59,2.592-2.59,6.807,0,9.396C4.557,2129.166,6.225,2129.855,8,2129.855L8,2129.855z"/>
	</g>
	<g>
		<path fill="#282828" d="M8,2120.888c0.18,0,0.353,0.07,0.48,0.199l3.289,3.289c0.266,0.266,0.266,0.697,0,0.961
			c-0.266,0.266-0.695,0.266-0.961,0L8,2122.529l-2.81,2.809c-0.265,0.268-0.695,0.268-0.961,0c-0.266-0.264-0.266-0.695,0-0.961
			l3.29-3.289C7.646,2120.958,7.818,2120.888,8,2120.888L8,2120.888z"/>
	</g>
</g>
<g>
	<g>
		<path fill="#0D71BA" d="M68.021,2201.222c0,2.139-0.832,4.148-2.343,5.658c-3.122,3.123-8.2,3.123-11.32,0.002
			c-1.512-1.512-2.344-3.521-2.344-5.66c0-2.137,0.833-4.146,2.346-5.66c3.119-3.119,8.197-3.119,11.317,0
			C67.188,2197.074,68.021,2199.083,68.021,2201.222L68.021,2201.222z M53.373,2201.222c0,1.775,0.691,3.443,1.945,4.699
			c2.59,2.59,6.807,2.59,9.398-0.002c1.254-1.254,1.945-2.924,1.945-4.697s-0.691-3.443-1.946-4.699c-2.591-2.59-6.806-2.59-9.396,0
			C54.064,2197.779,53.373,2199.447,53.373,2201.222L53.373,2201.222z"/>
	</g>
	<g>
		<path fill="#0D71BA" d="M62.342,2201.222c0,0.18-0.07,0.354-0.199,0.48l-3.29,3.289c-0.265,0.266-0.696,0.266-0.961,0
			c-0.266-0.266-0.266-0.695,0-0.961l2.81-2.809l-2.81-2.811c-0.266-0.266-0.266-0.695,0-0.961c0.265-0.266,0.696-0.266,0.961,0
			l3.29,3.291C62.271,2200.869,62.342,2201.041,62.342,2201.222L62.342,2201.222z"/>
	</g>
</g>
<g>
	<g>
		<path fill="#0D71BA" d="M52.014,2175.222c0-2.137,0.832-4.146,2.343-5.658c3.122-3.121,8.2-3.121,11.32,0
			c1.512,1.512,2.344,3.521,2.344,5.658c0,2.139-0.833,4.148-2.346,5.66c-3.119,3.121-8.197,3.121-11.317,0
			C52.846,2179.371,52.014,2177.361,52.014,2175.222L52.014,2175.222z M66.661,2175.222c0-1.773-0.691-3.443-1.945-4.697
			c-2.59-2.592-6.807-2.59-9.398,0c-1.254,1.256-1.945,2.926-1.945,4.697c0,1.775,0.691,3.443,1.946,4.699
			c2.591,2.59,6.806,2.59,9.396,0C65.97,2178.666,66.661,2176.998,66.661,2175.222L66.661,2175.222z"/>
	</g>
	<g>
		<path fill="#0D71BA" d="M57.692,2175.222c0-0.18,0.07-0.352,0.199-0.479l3.29-3.289c0.265-0.268,0.696-0.268,0.961,0
			c0.266,0.266,0.266,0.693,0,0.961l-2.81,2.809l2.81,2.811c0.266,0.264,0.266,0.693,0,0.961c-0.265,0.266-0.696,0.266-0.961,0
			l-3.29-3.291C57.763,2175.576,57.692,2175.404,57.692,2175.222L57.692,2175.222z"/>
	</g>
</g>
<g>
	<g>
		<path fill="#0D71BA" d="M60,2157.222c-2.138,0-4.147-0.832-5.658-2.342c-3.122-3.123-3.122-8.201-0.001-11.32
			c1.511-1.512,3.521-2.344,5.659-2.344c2.138-0.002,4.148,0.832,5.66,2.344c3.12,3.119,3.12,8.197,0,11.318
			C64.148,2156.39,62.139,2157.222,60,2157.222L60,2157.222z M60,2142.576c-1.775,0-3.443,0.689-4.698,1.943
			c-2.591,2.592-2.59,6.809,0.001,9.398c1.255,1.254,2.924,1.945,4.697,1.945c1.775,0,3.443-0.691,4.699-1.947
			c2.59-2.59,2.59-6.805,0-9.396C63.443,2143.265,61.775,2142.574,60,2142.576L60,2142.576z"/>
	</g>
	<g>
		<path fill="#0D71BA" d="M60,2151.544c-0.18,0-0.353-0.07-0.48-0.199l-3.289-3.291c-0.266-0.264-0.266-0.695,0-0.961
			s0.695-0.266,0.961,0l2.809,2.811l2.81-2.811c0.265-0.266,0.695-0.266,0.961,0c0.266,0.264,0.266,0.695,0,0.961l-3.29,3.291
			C60.354,2151.474,60.182,2151.544,60,2151.544L60,2151.544z"/>
	</g>
</g>
<g>
	<g>
		<path fill="#0D71BA" d="M60,2115.208c2.138,0,4.147,0.832,5.658,2.344c3.122,3.121,3.122,8.199,0.001,11.32
			c-1.511,1.512-3.521,2.344-5.659,2.344s-4.148-0.834-5.66-2.346c-3.12-3.119-3.12-8.197,0-11.318
			C55.852,2116.041,57.861,2115.208,60,2115.208L60,2115.208z M60,2129.855c1.775,0,3.443-0.689,4.698-1.943
			c2.591-2.592,2.59-6.809-0.001-9.398c-1.255-1.254-2.924-1.945-4.697-1.945c-1.775,0-3.443,0.691-4.699,1.945
			c-2.59,2.592-2.59,6.807,0,9.396C56.557,2129.166,58.225,2129.855,60,2129.855L60,2129.855z"/>
	</g>
	<g>
		<path fill="#0D71BA" d="M60,2120.888c0.18,0,0.353,0.07,0.48,0.199l3.289,3.289c0.266,0.266,0.266,0.697,0,0.961
			c-0.266,0.266-0.695,0.266-0.961,0l-2.809-2.811l-2.81,2.811c-0.265,0.266-0.695,0.266-0.961,0c-0.266-0.264-0.266-0.695,0-0.961
			l3.29-3.289C59.646,2120.958,59.818,2120.888,60,2120.888L60,2120.888z"/>
	</g>
</g>
<g>
	<g>
		<path fill="#0E7DC1" d="M94.027,2201.222c0,2.139-0.832,4.148-2.343,5.658c-3.122,3.123-8.2,3.123-11.32,0.002
			c-1.512-1.512-2.344-3.521-2.344-5.66c0-2.137,0.833-4.146,2.346-5.66c3.119-3.119,8.197-3.119,11.317,0
			C93.195,2197.074,94.027,2199.083,94.027,2201.222L94.027,2201.222z M79.38,2201.222c0,1.775,0.691,3.443,1.945,4.699
			c2.59,2.59,6.807,2.59,9.398-0.002c1.254-1.254,1.945-2.924,1.945-4.697s-0.691-3.443-1.946-4.699c-2.591-2.59-6.806-2.59-9.396,0
			C80.071,2197.779,79.38,2199.447,79.38,2201.222L79.38,2201.222z"/>
	</g>
	<g>
		<path fill="#0E7DC1" d="M88.349,2201.222c0,0.18-0.07,0.354-0.199,0.48l-3.29,3.289c-0.265,0.266-0.696,0.266-0.961,0
			c-0.266-0.266-0.266-0.695,0-0.961l2.81-2.809l-2.81-2.811c-0.266-0.266-0.266-0.695,0-0.961c0.265-0.266,0.696-0.266,0.961,0
			l3.29,3.291C88.278,2200.869,88.349,2201.041,88.349,2201.222L88.349,2201.222z"/>
	</g>
</g>
<g>
	<g>
		<path fill="#0E7DC1" d="M78.021,2175.222c0-2.137,0.832-4.146,2.343-5.658c3.122-3.121,8.2-3.121,11.32,0
			c1.512,1.512,2.344,3.521,2.344,5.658c0,2.139-0.833,4.148-2.346,5.66c-3.119,3.121-8.197,3.121-11.317,0
			C78.853,2179.371,78.021,2177.361,78.021,2175.222L78.021,2175.222z M92.668,2175.222c0-1.773-0.691-3.443-1.945-4.697
			c-2.59-2.592-6.807-2.59-9.398,0c-1.254,1.256-1.945,2.926-1.945,4.697c0,1.775,0.691,3.443,1.946,4.699
			c2.591,2.59,6.806,2.59,9.396,0C91.977,2178.666,92.668,2176.998,92.668,2175.222L92.668,2175.222z"/>
	</g>
	<g>
		<path fill="#0E7DC1" d="M83.699,2175.222c0-0.18,0.07-0.352,0.199-0.479l3.29-3.289c0.265-0.268,0.696-0.268,0.961,0
			c0.266,0.266,0.266,0.693,0,0.961l-2.81,2.809l2.81,2.811c0.266,0.264,0.266,0.693,0,0.961c-0.265,0.266-0.696,0.266-0.961,0
			l-3.29-3.291C83.77,2175.576,83.699,2175.404,83.699,2175.222L83.699,2175.222z"/>
	</g>
</g>
<g>
	<g>
		<path fill="#0E7DC1" d="M86,2157.222c-2.138,0-4.147-0.832-5.658-2.342c-3.122-3.123-3.122-8.201-0.001-11.32
			c1.511-1.512,3.521-2.344,5.659-2.344c2.138-0.002,4.148,0.832,5.66,2.344c3.12,3.119,3.12,8.197,0,11.318
			C90.149,2156.39,88.139,2157.222,86,2157.222L86,2157.222z M86,2142.576c-1.775,0-3.443,0.689-4.698,1.943
			c-2.591,2.592-2.59,6.809,0.001,9.398c1.255,1.254,2.924,1.945,4.697,1.945c1.775,0,3.443-0.691,4.699-1.947
			c2.59-2.59,2.59-6.805,0-9.396C89.444,2143.265,87.776,2142.574,86,2142.576L86,2142.576z"/>
	</g>
	<g>
		<path fill="#0E7DC1" d="M86,2151.544c-0.18,0-0.353-0.07-0.48-0.199l-3.289-3.291c-0.266-0.264-0.266-0.695,0-0.961
			s0.695-0.266,0.961,0l2.809,2.811l2.81-2.811c0.265-0.266,0.695-0.266,0.961,0c0.266,0.264,0.266,0.695,0,0.961l-3.29,3.291
			C86.354,2151.474,86.182,2151.544,86,2151.544L86,2151.544z"/>
	</g>
</g>
<g>
	<g>
		<path fill="#0E7DC1" d="M86,2115.208c2.138,0,4.147,0.832,5.658,2.344c3.122,3.121,3.122,8.199,0.001,11.32
			c-1.511,1.512-3.521,2.344-5.659,2.344s-4.148-0.834-5.66-2.346c-3.12-3.119-3.12-8.197,0-11.318
			C81.852,2116.041,83.862,2115.208,86,2115.208L86,2115.208z M86,2129.855c1.775,0,3.443-0.689,4.698-1.943
			c2.591-2.592,2.59-6.809-0.001-9.398c-1.255-1.254-2.924-1.945-4.697-1.945c-1.775,0-3.443,0.691-4.699,1.945
			c-2.59,2.592-2.59,6.807,0,9.396C82.557,2129.166,84.225,2129.855,86,2129.855L86,2129.855z"/>
	</g>
	<g>
		<path fill="#0E7DC1" d="M86,2120.888c0.18,0,0.353,0.07,0.48,0.199l3.289,3.289c0.266,0.266,0.266,0.697,0,0.961
			c-0.266,0.266-0.695,0.266-0.961,0l-2.809-2.811l-2.81,2.811c-0.265,0.266-0.695,0.266-0.961,0c-0.266-0.264-0.266-0.695,0-0.961
			l3.29-3.289C85.647,2120.958,85.819,2120.888,86,2120.888L86,2120.888z"/>
	</g>
</g>
<g>
	<g>
		<path fill="#39759C" d="M120.034,2201.222c0,2.139-0.832,4.148-2.343,5.658c-3.123,3.123-8.2,3.123-11.32,0.002
			c-1.512-1.512-2.344-3.521-2.344-5.66c0-2.137,0.832-4.146,2.346-5.66c3.119-3.119,8.197-3.119,11.316,0
			C119.202,2197.074,120.034,2199.083,120.034,2201.222L120.034,2201.222z M105.387,2201.222c0,1.775,0.691,3.443,1.945,4.699
			c2.59,2.59,6.807,2.59,9.398-0.002c1.254-1.254,1.944-2.924,1.944-4.697s-0.69-3.443-1.946-4.699c-2.59-2.59-6.806-2.59-9.396,0
			C106.078,2197.779,105.387,2199.447,105.387,2201.222L105.387,2201.222z"/>
	</g>
	<g>
		<path fill="#39759C" d="M114.355,2201.222c0,0.18-0.07,0.354-0.199,0.48l-3.29,3.289c-0.265,0.266-0.696,0.266-0.962,0
			s-0.266-0.695,0-0.961l2.811-2.809l-2.811-2.811c-0.266-0.266-0.266-0.695,0-0.961s0.697-0.266,0.962,0l3.29,3.291
			C114.285,2200.869,114.355,2201.041,114.355,2201.222L114.355,2201.222z"/>
	</g>
</g>
<g>
	<g>
		<path fill="#39759C" d="M104.027,2175.222c0-2.137,0.832-4.146,2.343-5.658c3.122-3.121,8.2-3.121,11.319,0
			c1.513,1.512,2.345,3.521,2.345,5.658c0,2.139-0.833,4.148-2.347,5.66c-3.119,3.121-8.196,3.121-11.316,0
			C104.859,2179.371,104.027,2177.361,104.027,2175.222L104.027,2175.222z M118.675,2175.222c0-1.773-0.69-3.443-1.944-4.697
			c-2.59-2.592-6.808-2.59-9.398,0c-1.254,1.256-1.945,2.926-1.945,4.697c0,1.775,0.691,3.443,1.946,4.699
			c2.591,2.59,6.806,2.59,9.396,0C117.982,2178.666,118.675,2176.998,118.675,2175.222L118.675,2175.222z"/>
	</g>
	<g>
		<path fill="#39759C" d="M109.706,2175.222c0-0.18,0.069-0.352,0.198-0.479l3.291-3.289c0.265-0.268,0.695-0.268,0.961,0
			c0.266,0.266,0.266,0.693,0,0.961l-2.811,2.809l2.811,2.811c0.266,0.264,0.266,0.693,0,0.961c-0.266,0.266-0.696,0.266-0.961,0
			l-3.291-3.291C109.775,2175.576,109.706,2175.404,109.706,2175.222L109.706,2175.222z"/>
	</g>
</g>
<g>
	<g>
		<path fill="#39759C" d="M112,2157.222c-2.139,0-4.146-0.832-5.658-2.342c-3.121-3.123-3.121-8.201-0.001-11.32
			c1.511-1.512,3.521-2.344,5.659-2.344c2.139-0.002,4.148,0.832,5.66,2.344c3.119,3.119,3.119,8.197,0,11.318
			C116.148,2156.39,114.139,2157.222,112,2157.222L112,2157.222z M112,2142.576c-1.775,0-3.443,0.689-4.698,1.943
			c-2.591,2.592-2.59,6.809,0.001,9.398c1.256,1.254,2.924,1.945,4.697,1.945c1.775,0,3.443-0.691,4.699-1.947
			c2.59-2.59,2.59-6.805,0-9.396C115.443,2143.265,113.775,2142.574,112,2142.576L112,2142.576z"/>
	</g>
	<g>
		<path fill="#39759C" d="M112,2151.544c-0.18,0-0.354-0.07-0.48-0.199l-3.289-3.291c-0.266-0.264-0.266-0.695,0-0.961
			c0.267-0.266,0.695-0.266,0.961,0l2.81,2.811l2.81-2.811c0.266-0.266,0.695-0.266,0.961,0c0.267,0.264,0.267,0.695,0,0.961
			l-3.289,3.291C112.354,2151.474,112.182,2151.544,112,2151.544L112,2151.544z"/>
	</g>
</g>
<g>
	<g>
		<path fill="#39759C" d="M112,2115.208c2.139,0,4.146,0.832,5.658,2.344c3.121,3.121,3.121,8.199,0.001,11.32
			c-1.511,1.512-3.521,2.344-5.659,2.344s-4.148-0.834-5.66-2.346c-3.119-3.119-3.119-8.197,0-11.318
			C107.852,2116.041,109.861,2115.208,112,2115.208L112,2115.208z M112,2129.855c1.775,0,3.443-0.689,4.698-1.943
			c2.591-2.592,2.59-6.809-0.001-9.398c-1.256-1.254-2.924-1.945-4.697-1.945c-1.775,0-3.443,0.691-4.699,1.945
			c-2.59,2.592-2.59,6.807,0,9.396C108.557,2129.166,110.225,2129.855,112,2129.855L112,2129.855z"/>
	</g>
	<g>
		<path fill="#39759C" d="M112,2120.888c0.18,0,0.354,0.07,0.48,0.199l3.289,3.289c0.266,0.266,0.266,0.697,0,0.961
			c-0.267,0.266-0.695,0.266-0.961,0l-2.81-2.811l-2.81,2.811c-0.266,0.266-0.695,0.266-0.961,0c-0.267-0.264-0.267-0.695,0-0.961
			l3.289-3.289C111.646,2120.958,111.818,2120.888,112,2120.888L112,2120.888z"/>
	</g>
</g>
<g>
	<g>
		<g>
			<path fill="#BDE1F7" d="M146.041,2201.222c0,2.139-0.832,4.148-2.343,5.658c-3.122,3.123-8.2,3.123-11.32,0.002
				c-1.512-1.512-2.344-3.521-2.344-5.66c0-2.137,0.833-4.146,2.346-5.66c3.119-3.119,8.197-3.119,11.317,0
				C145.209,2197.074,146.041,2199.083,146.041,2201.222L146.041,2201.222z M131.395,2201.222c0,1.775,0.69,3.443,1.944,4.699
				c2.591,2.59,6.808,2.59,9.397-0.002c1.255-1.254,1.945-2.924,1.945-4.697s-0.69-3.443-1.945-4.699
				c-2.592-2.59-6.807-2.59-9.396,0C132.085,2197.779,131.395,2199.447,131.395,2201.222L131.395,2201.222z"/>
		</g>
		<g>
			<path fill="#BDE1F7" d="M140.361,2201.222c0,0.18-0.069,0.354-0.198,0.48l-3.29,3.289c-0.266,0.266-0.696,0.266-0.961,0
				c-0.266-0.266-0.266-0.695,0-0.961l2.811-2.809l-2.811-2.811c-0.266-0.266-0.266-0.695,0-0.961c0.265-0.266,0.695-0.266,0.961,0
				l3.29,3.291C140.292,2200.869,140.361,2201.041,140.361,2201.222L140.361,2201.222z"/>
		</g>
	</g>
</g>
<g>
	<g>
		<g>
			<path fill="#BDE1F7" d="M130.034,2175.222c0-2.137,0.832-4.146,2.343-5.658c3.122-3.121,8.2-3.121,11.32,0
				c1.512,1.512,2.344,3.521,2.344,5.658c0,2.139-0.833,4.148-2.346,5.66c-3.119,3.121-8.197,3.121-11.317,0
				C130.866,2179.371,130.034,2177.361,130.034,2175.222L130.034,2175.222z M144.682,2175.222c0-1.773-0.69-3.443-1.945-4.697
				c-2.59-2.592-6.807-2.59-9.397,0c-1.254,1.256-1.944,2.926-1.944,4.697c0,1.775,0.69,3.443,1.945,4.699
				c2.592,2.59,6.807,2.59,9.396,0C143.99,2178.666,144.682,2176.998,144.682,2175.222L144.682,2175.222z"/>
		</g>
		<g>
			<path fill="#BDE1F7" d="M135.713,2175.222c0-0.18,0.07-0.352,0.199-0.479l3.29-3.289c0.265-0.268,0.696-0.268,0.961,0
				c0.267,0.266,0.267,0.693,0,0.961l-2.81,2.809l2.81,2.811c0.267,0.264,0.267,0.693,0,0.961c-0.265,0.266-0.696,0.266-0.961,0
				l-3.29-3.291C135.783,2175.576,135.713,2175.404,135.713,2175.222L135.713,2175.222z"/>
		</g>
	</g>
</g>
<g>
	<g>
		<g>
			<path fill="#BDE1F7" d="M138,2157.222c-2.139,0-4.146-0.832-5.658-2.342c-3.121-3.123-3.121-8.201-0.001-11.32
				c1.511-1.512,3.521-2.344,5.659-2.344c2.139-0.002,4.148,0.832,5.66,2.344c3.119,3.119,3.119,8.197,0,11.318
				C142.148,2156.39,140.139,2157.222,138,2157.222L138,2157.222z M138,2142.576c-1.775,0-3.443,0.689-4.698,1.943
				c-2.591,2.592-2.59,6.809,0.001,9.398c1.256,1.254,2.924,1.945,4.697,1.945c1.775,0,3.443-0.691,4.699-1.947
				c2.59-2.59,2.59-6.805,0-9.396C141.443,2143.265,139.775,2142.574,138,2142.576L138,2142.576z"/>
		</g>
		<g>
			<path fill="#BDE1F7" d="M138,2151.544c-0.18,0-0.354-0.07-0.48-0.199l-3.289-3.291c-0.266-0.264-0.266-0.695,0-0.961
				c0.267-0.266,0.695-0.266,0.961,0l2.81,2.811l2.81-2.811c0.266-0.266,0.695-0.266,0.961,0c0.267,0.264,0.267,0.695,0,0.961
				l-3.289,3.291C138.354,2151.474,138.182,2151.544,138,2151.544L138,2151.544z"/>
		</g>
	</g>
</g>
<g>
	<g>
		<g>
			<path fill="#BDE1F7" d="M138,2115.208c2.139,0,4.146,0.832,5.658,2.344c3.121,3.121,3.121,8.199,0.001,11.32
				c-1.511,1.512-3.521,2.344-5.659,2.344s-4.148-0.834-5.66-2.346c-3.119-3.119-3.119-8.197,0-11.318
				C133.852,2116.041,135.861,2115.208,138,2115.208L138,2115.208z M138,2129.855c1.775,0,3.443-0.689,4.698-1.943
				c2.591-2.592,2.59-6.809-0.001-9.398c-1.256-1.254-2.924-1.945-4.697-1.945c-1.775,0-3.443,0.691-4.699,1.945
				c-2.59,2.592-2.59,6.807,0,9.396C134.557,2129.166,136.225,2129.855,138,2129.855L138,2129.855z"/>
		</g>
		<g>
			<path fill="#BDE1F7" d="M138,2120.888c0.18,0,0.354,0.07,0.48,0.199l3.289,3.289c0.266,0.266,0.266,0.697,0,0.961
				c-0.267,0.266-0.695,0.266-0.961,0l-2.81-2.811l-2.81,2.811c-0.266,0.266-0.695,0.266-0.961,0c-0.267-0.264-0.267-0.695,0-0.961
				l3.289-3.289C137.646,2120.958,137.818,2120.888,138,2120.888L138,2120.888z"/>
		</g>
	</g>
</g>
<g>
	<g>
		<g>
			<path fill="#9ADBF4" d="M172.048,2201.222c0,2.139-0.832,4.148-2.343,5.658c-3.122,3.123-8.2,3.123-11.32,0.002
				c-1.512-1.512-2.344-3.521-2.344-5.66c0-2.137,0.833-4.146,2.346-5.66c3.119-3.119,8.197-3.119,11.317,0
				C171.216,2197.074,172.048,2199.083,172.048,2201.222L172.048,2201.222z M157.4,2201.222c0,1.775,0.69,3.443,1.945,4.699
				c2.59,2.59,6.807,2.59,9.397-0.002c1.254-1.254,1.944-2.924,1.944-4.697s-0.69-3.443-1.945-4.699c-2.592-2.59-6.807-2.59-9.396,0
				C158.092,2197.779,157.4,2199.447,157.4,2201.222L157.4,2201.222z"/>
		</g>
		<g>
			<path fill="#9ADBF4" d="M166.369,2201.222c0,0.18-0.07,0.354-0.199,0.48l-3.29,3.289c-0.265,0.266-0.696,0.266-0.961,0
				c-0.267-0.266-0.267-0.695,0-0.961l2.81-2.809l-2.81-2.811c-0.267-0.266-0.267-0.695,0-0.961c0.265-0.266,0.696-0.266,0.961,0
				l3.29,3.291C166.299,2200.869,166.369,2201.041,166.369,2201.222L166.369,2201.222z"/>
		</g>
	</g>
</g>
<g>
	<g>
		<g>
			<path fill="#9ADBF4" d="M156.041,2175.222c0-2.137,0.832-4.146,2.343-5.658c3.122-3.121,8.2-3.121,11.32,0
				c1.512,1.512,2.344,3.521,2.344,5.658c0,2.139-0.833,4.148-2.346,5.66c-3.119,3.121-8.197,3.121-11.317,0
				C156.873,2179.371,156.041,2177.361,156.041,2175.222L156.041,2175.222z M170.688,2175.222c0-1.773-0.69-3.443-1.944-4.697
				c-2.591-2.592-6.808-2.59-9.397,0c-1.255,1.256-1.945,2.926-1.945,4.697c0,1.775,0.69,3.443,1.945,4.699
				c2.592,2.59,6.807,2.59,9.396,0C169.997,2178.666,170.688,2176.998,170.688,2175.222L170.688,2175.222z"/>
		</g>
		<g>
			<path fill="#9ADBF4" d="M161.721,2175.222c0-0.18,0.069-0.352,0.198-0.479l3.29-3.289c0.266-0.268,0.695-0.268,0.961,0
				c0.266,0.266,0.266,0.693,0,0.961l-2.811,2.809l2.811,2.811c0.266,0.264,0.266,0.693,0,0.961c-0.266,0.266-0.695,0.266-0.961,0
				l-3.29-3.291C161.79,2175.576,161.721,2175.404,161.721,2175.222L161.721,2175.222z"/>
		</g>
	</g>
</g>
<g>
	<g>
		<g>
			<path fill="#9ADBF4" d="M164.001,2157.222c-2.138,0-4.147-0.832-5.658-2.342c-3.122-3.123-3.122-8.201-0.001-11.32
				c1.512-1.512,3.521-2.344,5.659-2.344c2.138-0.002,4.147,0.832,5.66,2.344c3.12,3.119,3.12,8.197,0,11.318
				C168.148,2156.39,166.141,2157.222,164.001,2157.222L164.001,2157.222z M164.001,2142.576c-1.774,0-3.442,0.689-4.698,1.943
				c-2.591,2.592-2.59,6.809,0.002,9.398c1.254,1.254,2.924,1.945,4.696,1.945c1.774,0,3.442-0.691,4.699-1.947
				c2.59-2.59,2.59-6.805,0-9.396C167.443,2143.265,165.775,2142.574,164.001,2142.576L164.001,2142.576z"/>
		</g>
		<g>
			<path fill="#9ADBF4" d="M164.001,2151.544c-0.181,0-0.353-0.07-0.479-0.199l-3.289-3.291c-0.267-0.264-0.267-0.695,0-0.961
				c0.266-0.266,0.695-0.266,0.961,0l2.809,2.811l2.811-2.811c0.265-0.266,0.694-0.266,0.961,0c0.266,0.264,0.266,0.695,0,0.961
				l-3.291,3.291C164.354,2151.474,164.184,2151.544,164.001,2151.544L164.001,2151.544z"/>
		</g>
	</g>
</g>
<g>
	<g>
		<g>
			<path fill="#9ADBF4" d="M164.001,2115.208c2.138,0,4.147,0.832,5.658,2.344c3.122,3.121,3.122,8.199,0.001,11.32
				c-1.512,1.512-3.521,2.344-5.659,2.344s-4.147-0.834-5.66-2.346c-3.12-3.119-3.12-8.197,0-11.318
				C159.854,2116.041,161.861,2115.208,164.001,2115.208L164.001,2115.208z M164.001,2129.855c1.774,0,3.442-0.689,4.698-1.943
				c2.591-2.592,2.59-6.809-0.001-9.398c-1.255-1.254-2.925-1.945-4.697-1.945c-1.774,0-3.442,0.691-4.699,1.945
				c-2.59,2.592-2.59,6.807,0,9.396C160.559,2129.166,162.227,2129.855,164.001,2129.855L164.001,2129.855z"/>
		</g>
		<g>
			<path fill="#9ADBF4" d="M164.001,2120.888c0.181,0,0.353,0.07,0.479,0.199l3.289,3.289c0.267,0.266,0.267,0.697,0,0.961
				c-0.266,0.266-0.694,0.266-0.961,0l-2.809-2.811l-2.811,2.811c-0.265,0.266-0.694,0.266-0.961,0
				c-0.266-0.264-0.266-0.695,0-0.961l3.291-3.289C163.646,2120.958,163.818,2120.888,164.001,2120.888L164.001,2120.888z"/>
		</g>
	</g>
</g>
<g>
	<g>
		<g>
			<path fill="#BFDAED" d="M198.055,2201.222c0,2.139-0.832,4.148-2.343,5.658c-3.122,3.123-8.2,3.123-11.319,0.002
				c-1.513-1.512-2.345-3.521-2.345-5.66c0-2.137,0.833-4.146,2.347-5.66c3.119-3.119,8.196-3.119,11.316,0
				C197.223,2197.074,198.055,2199.083,198.055,2201.222L198.055,2201.222z M183.407,2201.222c0,1.775,0.69,3.443,1.944,4.699
				c2.59,2.59,6.808,2.59,9.398-0.002c1.254-1.254,1.945-2.924,1.945-4.697s-0.691-3.443-1.946-4.699
				c-2.591-2.59-6.806-2.59-9.396,0C184.1,2197.779,183.407,2199.447,183.407,2201.222L183.407,2201.222z"/>
		</g>
		<g>
			<path fill="#BFDAED" d="M192.376,2201.222c0,0.18-0.069,0.354-0.199,0.48l-3.29,3.289c-0.265,0.266-0.695,0.266-0.961,0
				s-0.266-0.695,0-0.961l2.811-2.809l-2.811-2.811c-0.266-0.266-0.266-0.695,0-0.961s0.696-0.266,0.961,0l3.29,3.291
				C192.307,2200.869,192.376,2201.041,192.376,2201.222L192.376,2201.222z"/>
		</g>
	</g>
</g>
<g>
	<g>
		<g>
			<path fill="#BFDAED" d="M182.048,2175.222c0-2.137,0.832-4.146,2.343-5.658c3.123-3.121,8.2-3.121,11.32,0
				c1.512,1.512,2.344,3.521,2.344,5.658c0,2.139-0.832,4.148-2.346,5.66c-3.119,3.121-8.197,3.121-11.316,0
				C182.88,2179.371,182.048,2177.361,182.048,2175.222L182.048,2175.222z M196.695,2175.222c0-1.773-0.691-3.443-1.945-4.697
				c-2.59-2.592-6.807-2.59-9.398,0c-1.254,1.256-1.944,2.926-1.944,4.697c0,1.775,0.69,3.443,1.946,4.699
				c2.59,2.59,6.806,2.59,9.396,0C196.004,2178.666,196.695,2176.998,196.695,2175.222L196.695,2175.222z"/>
		</g>
		<g>
			<path fill="#BFDAED" d="M187.727,2175.222c0-0.18,0.07-0.352,0.199-0.479l3.29-3.289c0.265-0.268,0.696-0.268,0.961,0
				c0.267,0.266,0.267,0.693,0,0.961l-2.81,2.809l2.81,2.811c0.267,0.264,0.267,0.693,0,0.961c-0.265,0.266-0.696,0.266-0.961,0
				l-3.29-3.291C187.797,2175.576,187.727,2175.404,187.727,2175.222L187.727,2175.222z"/>
		</g>
	</g>
</g>
<g>
	<g>
		<g>
			<path fill="#BFDAED" d="M190.001,2157.222c-2.138,0-4.147-0.832-5.658-2.342c-3.122-3.123-3.122-8.201-0.001-11.32
				c1.512-1.512,3.521-2.344,5.659-2.344c2.138-0.002,4.147,0.832,5.66,2.344c3.12,3.119,3.12,8.197,0,11.318
				C194.148,2156.39,192.141,2157.222,190.001,2157.222L190.001,2157.222z M190.001,2142.576c-1.774,0-3.442,0.689-4.698,1.943
				c-2.591,2.592-2.59,6.809,0.002,9.398c1.254,1.254,2.924,1.945,4.696,1.945c1.774,0,3.442-0.691,4.699-1.947
				c2.59-2.59,2.59-6.805,0-9.396C193.443,2143.265,191.775,2142.574,190.001,2142.576L190.001,2142.576z"/>
		</g>
		<g>
			<path fill="#BFDAED" d="M190.001,2151.544c-0.181,0-0.353-0.07-0.479-0.199l-3.289-3.291c-0.267-0.264-0.267-0.695,0-0.961
				c0.266-0.266,0.695-0.266,0.961,0l2.809,2.811l2.811-2.811c0.265-0.266,0.694-0.266,0.961,0c0.266,0.264,0.266,0.695,0,0.961
				l-3.291,3.291C190.354,2151.474,190.184,2151.544,190.001,2151.544L190.001,2151.544z"/>
		</g>
	</g>
</g>
<g>
	<g>
		<g>
			<path fill="#BFDAED" d="M190.001,2115.208c2.138,0,4.147,0.832,5.658,2.344c3.122,3.121,3.122,8.199,0.001,11.32
				c-1.512,1.512-3.521,2.344-5.659,2.344s-4.147-0.834-5.66-2.346c-3.12-3.119-3.12-8.197,0-11.318
				C185.854,2116.041,187.861,2115.208,190.001,2115.208L190.001,2115.208z M190.001,2129.855c1.774,0,3.442-0.689,4.698-1.943
				c2.591-2.592,2.59-6.809-0.001-9.398c-1.255-1.254-2.925-1.945-4.697-1.945c-1.774,0-3.442,0.691-4.699,1.945
				c-2.59,2.592-2.59,6.807,0,9.396C186.559,2129.166,188.227,2129.855,190.001,2129.855L190.001,2129.855z"/>
		</g>
		<g>
			<path fill="#BFDAED" d="M190.001,2120.888c0.181,0,0.353,0.07,0.479,0.199l3.289,3.289c0.267,0.266,0.267,0.697,0,0.961
				c-0.266,0.266-0.694,0.266-0.961,0l-2.809-2.811l-2.811,2.811c-0.265,0.266-0.694,0.266-0.961,0
				c-0.266-0.264-0.266-0.695,0-0.961l3.291-3.289C189.646,2120.958,189.818,2120.888,190.001,2120.888L190.001,2120.888z"/>
		</g>
	</g>
</g>
<g>
	<g>
		<path fill="#D93832" d="M100,619.999c-55.142,0-100-44.858-100-100c0-55.143,44.858-100,100-100c55.143,0,100,44.857,100,100
			C200,575.141,155.143,619.999,100,619.999z M100,428.323c-50.549,0-91.676,41.127-91.676,91.676S49.451,611.675,100,611.675
			s91.675-41.127,91.675-91.676S150.549,428.323,100,428.323z"/>
	</g>
	<g>
		<g>
			<path fill="#D93832" d="M142.654,564.572H61.67c-4.82,0-8.739-3.928-8.739-8.751v-56.521c0-4.819,3.919-8.744,8.739-8.744h80.984
				c4.82,0,8.74,3.925,8.74,8.744v56.521C151.395,560.646,147.477,564.572,142.654,564.572L142.654,564.572z M61.67,498.883
				c-0.228,0-0.414,0.188-0.414,0.419v56.521c0,0.23,0.187,0.426,0.414,0.426h80.984c0.22,0,0.414-0.194,0.414-0.426v-56.521
				c0-0.229-0.194-0.419-0.414-0.419H61.67L61.67,498.883z"/>
		</g>
		<g>
			<path fill="#D93832" d="M118.771,497.639c-2.301,0-4.162-1.86-4.162-4.162v-10.312c0-0.232-0.188-0.424-0.416-0.424H90.131
				c-0.235,0-0.423,0.188-0.423,0.424v10.312c0,2.302-1.861,4.162-4.162,4.162c-2.301,0-4.162-1.86-4.162-4.162v-10.312
				c0-4.825,3.918-8.748,8.747-8.748h24.063c4.822,0,8.74,3.923,8.74,8.748v10.312C122.934,495.777,121.07,497.639,118.771,497.639
				L118.771,497.639z"/>
		</g>
	</g>
</g>
<g>
	<g>
		<path fill="#3BB54A" d="M100,409.999C44.858,409.999,0,365.142,0,310c0-55.142,44.858-100,100-100c55.143,0,100,44.858,100,100
			C200,365.142,155.143,409.999,100,409.999z M100,218.325c-50.549,0-91.675,41.126-91.675,91.675
			c0,50.548,41.126,91.675,91.675,91.675s91.675-41.127,91.675-91.675C191.675,259.451,150.549,218.325,100,218.325z"/>
	</g>
	<g>
		<g>
			<g>
				<path fill="#3BB54A" d="M141.365,363.476h-82.73c-2.238,0-4.053-1.813-4.053-4.053v-84.045c0-1.501,0.83-2.879,2.157-3.582
					l41.365-21.893c1.186-0.627,2.605-0.628,3.792,0l41.363,21.893c1.327,0.703,2.157,2.081,2.157,3.582v84.045
					C145.418,361.661,143.604,363.476,141.365,363.476z M62.687,355.37h74.627v-77.552l-37.313-19.748l-37.314,19.748V355.37z"/>
			</g>
		</g>
		<g>
			<g>
				<path fill="#3BB54A" d="M75.027,359.677c-2.301,0-4.162-1.86-4.162-4.162V339.08c0-2.301,1.861-4.162,4.162-4.162
					c2.3,0,4.162,1.861,4.162,4.162v16.435C79.189,357.815,77.327,359.677,75.027,359.677L75.027,359.677z"/>
			</g>
			<g>
				<path fill="#3BB54A" d="M91.676,359.677c-2.301,0-4.162-1.86-4.162-4.162V339.08c0-2.301,1.861-4.162,4.162-4.162
					c2.301,0,4.162,1.861,4.162,4.162v16.435C95.838,357.815,93.977,359.677,91.676,359.677L91.676,359.677z"/>
			</g>
			<g>
				<path fill="#3BB54A" d="M108.325,359.677c-2.302,0-4.162-1.86-4.162-4.162V339.08c0-2.301,1.86-4.162,4.162-4.162
					c2.301,0,4.161,1.861,4.161,4.162v16.435C112.486,357.815,110.626,359.677,108.325,359.677L108.325,359.677z"/>
			</g>
			<g>
				<path fill="#3BB54A" d="M124.975,359.677c-2.301,0-4.162-1.86-4.162-4.162V339.08c0-2.301,1.861-4.162,4.162-4.162
					s4.162,1.861,4.162,4.162v16.435C129.137,357.815,127.273,359.677,124.975,359.677L124.975,359.677z"/>
			</g>
		</g>
		<g>
			<g>
				<path fill="#3BB54A" d="M134.934,334.918c0,2.3-1.861,4.162-4.162,4.162H69.229c-2.3,0-4.162-1.862-4.162-4.162
					c0-2.301,1.862-4.163,4.162-4.163h61.542C133.07,330.755,134.934,332.617,134.934,334.918L134.934,334.918z"/>
			</g>
			<g>
				<path fill="#3BB54A" d="M134.934,318.269c0,2.302-1.861,4.163-4.162,4.163H69.229c-2.3,0-4.162-1.861-4.162-4.163
					c0-2.301,1.862-4.161,4.162-4.161h61.542C133.07,314.106,134.934,315.968,134.934,318.269L134.934,318.269z"/>
			</g>
			<g>
				<path fill="#3BB54A" d="M134.934,301.619c0,2.301-1.861,4.163-4.162,4.163H69.229c-2.3,0-4.162-1.862-4.162-4.163
					c0-2.3,1.862-4.161,4.162-4.161h61.542C133.07,297.458,134.934,299.319,134.934,301.619L134.934,301.619z"/>
			</g>
			<g>
				<path fill="#3BB54A" d="M134.934,284.971c0,2.301-1.861,4.163-4.162,4.163H69.229c-2.3,0-4.162-1.862-4.162-4.163
					c0-2.301,1.862-4.162,4.162-4.162h61.542C133.07,280.809,134.934,282.67,134.934,284.971L134.934,284.971z"/>
			</g>
		</g>
	</g>
</g>
<g>
	<g>
		<path fill="#29AAE2" d="M100,200C44.862,200,0,155.142,0,100C0,44.857,44.862,0,100,0c55.139,0,100,44.857,100,100
			C200,155.142,155.139,200,100,200z M100,8.325C49.447,8.325,8.325,49.451,8.325,100S49.447,191.676,100,191.676
			c50.553,0,91.675-41.127,91.675-91.676S150.553,8.325,100,8.325z"/>
	</g>
	<g>
		<g>
			<path fill="#29AAE2" d="M99.305,114.353c-0.561,0-1.13-0.114-1.658-0.346L51.008,93.688c-1.52-0.663-2.504-2.162-2.504-3.816
				c0-1.654,0.984-3.154,2.504-3.817l46.639-20.319c1.057-0.463,2.268-0.463,3.326,0l46.629,20.319
				c1.517,0.663,2.496,2.163,2.496,3.817c0,1.654-0.979,3.153-2.496,3.816l-46.629,20.319
				C100.443,114.238,99.874,114.353,99.305,114.353L99.305,114.353z M63.089,89.871l36.216,15.779l36.216-15.779L99.305,74.092
				L63.089,89.871L63.089,89.871z"/>
		</g>
		<g>
			<path fill="#29AAE2" d="M99.305,133.615c-12.617,0-25.233-3.785-36.484-11.354c-1.154-0.775-1.846-2.068-1.846-3.455V96.609
				c0-2.301,1.861-4.162,4.162-4.162c2.301,0,4.162,1.861,4.162,4.162v19.934c18.689,11.625,41.322,11.625,60.012,0V96.609
				c0-2.301,1.861-4.162,4.162-4.162s4.162,1.861,4.162,4.162v22.197c0,1.387-0.689,2.68-1.837,3.455
				C124.547,129.83,111.922,133.615,99.305,133.615L99.305,133.615z"/>
		</g>
		<g>
			<path fill="#29AAE2" d="M148.211,122.278c-1.146,0-2.08-0.931-2.08-2.081V89.672c0-1.15,0.934-2.082,2.08-2.082
				c1.155,0,2.081,0.932,2.081,2.082v30.525C150.292,121.348,149.366,122.278,148.211,122.278L148.211,122.278z"/>
		</g>
		<g>
			<path fill="#29AAE2" d="M148.211,124.359c-2.3,0-4.162-1.861-4.162-4.162v-14.568c0-2.301,1.862-4.162,4.162-4.162
				c2.301,0,4.162,1.861,4.162,4.162v14.568C152.373,122.498,150.512,124.359,148.211,124.359L148.211,124.359z"/>
		</g>
	</g>
</g>
<g>
	<circle opacity="0.15" fill="#FFFFFF" enable-background="new    " cx="44.858" cy="1934.153" r="42.438"/>
	<g>
		<g>
			<path fill="#FFFFFF" d="M44.58,1979.158c-24.582,0-44.58-19.996-44.58-44.58c0-24.582,19.998-44.58,44.58-44.58
				s44.58,19.998,44.58,44.58C89.16,1959.162,69.162,1979.158,44.58,1979.158z M44.58,1893.71
				c-22.534,0-40.869,18.334-40.869,40.867c0,22.535,18.335,40.869,40.869,40.869c22.535,0,40.869-18.334,40.869-40.869
				C85.449,1912.044,67.115,1893.71,44.58,1893.71z"/>
		</g>
		<g>
			<g>
				<path fill="#FFFFFF" d="M51.597,1953.759c-0.378,0-0.762-0.115-1.088-0.355c-0.829-0.604-1.014-1.764-0.409-2.59l12.115-16.66
					L50.1,1917.496c-0.604-0.828-0.42-1.986,0.409-2.592c0.827-0.602,1.99-0.418,2.592,0.408l12.909,17.75
					c0.475,0.65,0.475,1.531,0,2.184l-12.909,17.748C52.738,1953.494,52.173,1953.759,51.597,1953.759L51.597,1953.759z"/>
			</g>
			<g>
				<path fill="#FFFFFF" d="M64.509,1936.009H25.206c-1.026,0-1.856-0.828-1.856-1.855c0-1.025,0.83-1.855,1.856-1.855h39.303
					c1.026,0,1.856,0.83,1.856,1.855C66.365,1935.181,65.535,1936.009,64.509,1936.009L64.509,1936.009z"/>
			</g>
		</g>
	</g>
</g>
<g>
	<circle opacity="0.35" fill="#FFFFFF" enable-background="new    " cx="144.018" cy="1934.153" r="42.438"/>
	<g>
		<g>
			<path fill="#FFFFFF" d="M143.74,1979.158c-24.582,0-44.58-19.996-44.58-44.58c0-24.582,19.998-44.58,44.58-44.58
				s44.58,19.998,44.58,44.58C188.32,1959.162,168.322,1979.158,143.74,1979.158z M143.74,1893.71
				c-22.534,0-40.869,18.334-40.869,40.867c0,22.535,18.335,40.869,40.869,40.869c22.535,0,40.869-18.334,40.869-40.869
				C184.609,1912.044,166.275,1893.71,143.74,1893.71z"/>
		</g>
		<g>
			<g>
				<path fill="#FFFFFF" d="M150.757,1953.759c-0.378,0-0.762-0.115-1.088-0.355c-0.829-0.604-1.015-1.764-0.409-2.59l12.115-16.66
					l-12.115-16.656c-0.604-0.83-0.42-1.988,0.409-2.592c0.827-0.602,1.99-0.418,2.593,0.408l12.908,17.75
					c0.475,0.65,0.475,1.531,0,2.182l-12.908,17.748C151.898,1953.494,151.333,1953.759,150.757,1953.759L150.757,1953.759z"/>
			</g>
			<g>
				<path fill="#FFFFFF" d="M163.669,1936.009h-39.303c-1.026,0-1.856-0.828-1.856-1.855c0-1.025,0.83-1.855,1.856-1.855h39.303
					c1.026,0,1.856,0.83,1.856,1.855C165.525,1935.181,164.695,1936.009,163.669,1936.009L163.669,1936.009z"/>
			</g>
		</g>
	</g>
</g>
<g>
	<circle fill="#F16624" cx="24.025" cy="2012.955" r="22.727"/>
	<g>
		<g>
			<path fill="#FFFFFF" d="M24.025,2037.208c-13.248,0-24.025-10.777-24.025-24.025s10.777-24.023,24.025-24.023
				s24.025,10.775,24.025,24.023S37.273,2037.208,24.025,2037.208z M24.025,1991.158c-12.145,0-22.025,9.881-22.025,22.025
				s9.881,22.025,22.025,22.025s22.025-9.881,22.025-22.025S36.17,1991.158,24.025,1991.158z"/>
		</g>
		<g>
			<g>
				<path fill="#FFFFFF" d="M27.807,2023.521c-0.205,0-0.41-0.063-0.586-0.191c-0.447-0.324-0.547-0.949-0.221-1.396l6.529-8.977
					L27,2003.978c-0.326-0.445-0.227-1.07,0.221-1.396c0.445-0.324,1.072-0.225,1.396,0.221l6.957,9.566
					c0.256,0.35,0.256,0.824,0,1.176l-6.957,9.564C28.422,2023.378,28.117,2023.521,27.807,2023.521L27.807,2023.521z"/>
			</g>
			<g>
				<path fill="#FFFFFF" d="M34.766,2013.955H13.584c-0.553,0-1-0.447-1-1s0.447-1,1-1h21.182c0.553,0,1,0.447,1,1
					S35.318,2013.955,34.766,2013.955L34.766,2013.955z"/>
			</g>
		</g>
	</g>
</g>
<g>
	<circle fill="#F79420" cx="82.076" cy="2012.955" r="22.727"/>
	<g>
		<g>
			<path fill="#FFFFFF" d="M82.076,2037.208c-13.248,0-24.025-10.777-24.025-24.025s10.777-24.023,24.025-24.023
				s24.025,10.775,24.025,24.023S95.324,2037.208,82.076,2037.208z M82.076,1991.158c-12.145,0-22.025,9.881-22.025,22.025
				s9.881,22.025,22.025,22.025s22.025-9.881,22.025-22.025S94.221,1991.158,82.076,1991.158z"/>
		</g>
		<g>
			<g>
				<path fill="#FFFFFF" d="M85.857,2023.521c-0.205,0-0.41-0.063-0.586-0.191c-0.447-0.324-0.547-0.949-0.221-1.396l6.529-8.977
					l-6.529-8.979c-0.326-0.445-0.227-1.07,0.221-1.396c0.445-0.324,1.072-0.227,1.396,0.221l6.957,9.566
					c0.256,0.35,0.256,0.824,0,1.176l-6.957,9.564C86.473,2023.378,86.168,2023.521,85.857,2023.521L85.857,2023.521z"/>
			</g>
			<g>
				<path fill="#FFFFFF" d="M92.816,2013.955H71.635c-0.553,0-1-0.447-1-1s0.447-1,1-1h21.182c0.553,0,1,0.447,1,1
					S93.369,2013.955,92.816,2013.955L92.816,2013.955z"/>
			</g>
		</g>
	</g>
</g>
<g>
	<g>
		<g>
			<path fill="#F16624" d="M140.127,2037.208c-13.248,0-24.025-10.777-24.025-24.025s10.777-24.023,24.025-24.023
				s24.025,10.775,24.025,24.023S153.375,2037.208,140.127,2037.208z M140.127,1991.158c-12.145,0-22.025,9.881-22.025,22.025
				s9.881,22.025,22.025,22.025s22.025-9.881,22.025-22.025S152.271,1991.158,140.127,1991.158z"/>
		</g>
		<g>
			<g>
				<path fill="#F16624" d="M143.908,2023.521c-0.205,0-0.41-0.063-0.586-0.191c-0.447-0.324-0.547-0.949-0.222-1.396l6.529-8.977
					l-6.529-8.979c-0.325-0.445-0.227-1.07,0.222-1.396c0.444-0.324,1.071-0.227,1.396,0.221l6.957,9.566
					c0.256,0.35,0.256,0.824,0,1.176l-6.957,9.564C144.523,2023.378,144.219,2023.521,143.908,2023.521L143.908,2023.521z"/>
			</g>
			<g>
				<path fill="#F16624" d="M150.867,2013.955h-21.182c-0.553,0-1-0.447-1-1s0.447-1,1-1h21.182c0.554,0,1,0.447,1,1
					S151.42,2013.955,150.867,2013.955L150.867,2013.955z"/>
			</g>
		</g>
	</g>
</g>
</svg>
